<?xml version="1.0" encoding="UTF-8"?>
<svg xmlns="http://www.w3.org/2000/svg" version="1.1" viewBox="0 0 800 800">
  <defs>
    <style>
      .cls-1 {
        fill: #e73b39;
      }

      .cls-2 {
        fill: #196fb6;
      }
    </style>
  </defs>
  <!-- Generator: Adobe Illustrator 28.6.0, SVG Export Plug-In . SVG Version: 1.2.0 Build 709)  -->
  <g>
    <g id="_Слой_1" data-name="Слой_1">
      <path class="cls-1" d="M742.2,416.7c-.4,2.5-.6,7.7-1.9,12.7-6,22.9-11.8,45.8-18.5,68.4-9.8,33.3-41.3,50.6-74.7,41.6-22-5.9-44-11.6-65.9-17.8-33.1-9.4-50.7-39.7-42.3-73.1,5.8-22.9,11.9-45.7,18.5-68.4,9-31.2,38.4-49.1,69.9-41.8,25.1,5.8,50,12.6,74.6,20.1,24.1,7.3,40.2,30.7,40.2,58.4ZM698.6,464.2c-14.3,1.1-28-3.3-41.2,8.6-13.8,12.5-37.1,3.8-42-13.2-2.2-7.5-1.6-12,8.5-11.7,20.2.7,40.4.2,60.6.2q19.5,0,17.3-19.2c-.4-3.4-1-6.8-1.7-10.2-6.2-29.9-27.7-46.3-60.7-46.5-31.7-.1-53.7,16.6-59.9,45.9-2.9,13.6-2.9,27.5.1,41,5.4,23.8,19.2,40.2,44.1,44.8,26.1,4.8,49.8.6,67.4-21.4,4-4.9,7.5-10.5,7.5-18.3Z"/>
      <path class="cls-2" d="M124.1,426.3c0-22.8.1-45.5,0-68.3,0-11.4,5.6-19,16.4-19.2,24.4-.4,49-2.5,73.3,1.5,31.9,5.2,49.3,22.1,56,53.9,3.9,18.7,3.8,37.6-.8,56.2-7.5,29.8-30.6,50.5-61.2,52.4-25.2,1.6-50.6.8-76,1.5-7.8.2-7.9-4.1-7.8-9.7.1-22.8,0-45.5,0-68.3ZM158.9,420.2c0,15,0,30.1,0,45.1,0,4.2-.8,8.1,5.8,9.2,50.7,8.7,76.4-15.1,70.5-66-.5-4.7-1.5-9.4-2.9-13.9-4.6-14.9-14.2-24.6-30.1-26.2-11.5-1.1-23.2-.5-34.7-1.2-7-.4-8.8,2.6-8.7,9.1.3,14.6.1,29.2.1,43.8Z"/>
      <path class="cls-2" d="M474,461.2c6.7-21.8,13.2-42.9,19.7-64,5.9-19.2,21.6-27.3,40.7-21,7.4,2.5,2.3,7,1.1,10.2-11.7,31.8-23.6,63.5-35.4,95.3-.1.4-.3.8-.5,1.2-7.9,21.1-17.9,26.3-40.2,21.4-5-1.1-5.7-4.6-7-8.1-13.7-37-27.2-74.1-41.2-111-2.8-7.5-1.5-9.2,6.5-9.4,27.8-.5,27.8-.8,36,26.1,5.8,18.9,11.5,37.8,17.3,56.6.2.6,1.1.9,3.1,2.6Z"/>
      <path class="cls-1" d="M741,376.5c-7.2-8.3-13.1-16.3-21.6-21.6-4.2-2.6-3.4-6.4-3.7-10.2-1.8-23.6-15.9-41.3-37.3-47.2-21.5-5.9-43.7,2.1-56.2,21.3-3.7,5.7-7.7,7.9-14.3,8.6-7.6.7-14.9,3.3-22.4,5.1-1-23,19-50.1,46-62.2,30.4-13.6,67.3-7.1,90.9,15.9,24.2,23.7,32,59.3,18.6,90.1Z"/>
      <path class="cls-2" d="M109.4,421.4c0,23.6-.3,47.2.2,70.8.2,8.4-1.3,12.1-11,12-25.4-.3-25.4.2-25.4-25.5,0-39.1,0-78.1,0-117.2,0-18.4,14.9-28.7,32.3-23,5.6,1.8,3.9,6,3.9,9.5.2,24.5,0,48.9,0,73.4Z"/>
      <path class="cls-2" d="M279.5,461.5c.6-12.6-1.4-27.3,2.5-41.7,7.5-28,42-49.7,69.2-43.7,3.8.8,5,2.5,4.9,6.1-.1,6.4-.3,12.9,0,19.3.4,6.6-1.9,8.8-8.7,9.1-26.8,1.3-32.1,7.1-32.2,33.5,0,16.3-.3,32.7.1,49,.2,7.8-1.3,11.3-10.3,11.3-25.7,0-25.7.5-25.7-25.4v-17.4Z"/>
      <path class="cls-2" d="M366.9,439.7c0-18.5.2-37-.1-55.4,0-6,1.6-8.1,7.9-8.4,21.6-1.1,28,4.6,28,26.2,0,30.5-.3,61,.2,91.5.2,8.7-2.7,10.8-11,10.8-25,0-25,.4-25-24.8s0-26.6,0-40Z"/>
      <path class="cls-2" d="M402.6,348.4c-.2,10.4-9.7,18.7-20.7,18.2-10.5-.5-19-8.9-18.8-18.8.2-10.4,9.6-18.7,20.7-18.2,10.6.5,19,8.9,18.8,18.8Z"/>
      <path class="cls-1" d="M638.6,426.2c-4.7,0-9.4,0-14.1,0-11.1-.2-12.9-3-7.8-12.7,5.4-10.3,14.5-14,25.6-13.2,10.3.7,17.7,5.7,21.1,15.8,2.1,6.2,1.9,10.9-6.9,10.2-5.9-.5-11.9,0-17.9,0Z"/>
    </g>
  </g>
</svg>