<svg xmlns="http://www.w3.org/2000/svg"  viewBox="0 0 100 100" width="400px" height="400px"><circle cx="49.979" cy="50.021" r="35" fill="#e85654"/><path fill="#1f212b" d="M49.979,86.021c-19.851,0-36-16.149-36-36s16.149-36,36-36s36,16.149,36,36	S69.829,86.021,49.979,86.021z M49.979,16.021c-18.748,0-34,15.252-34,34s15.252,34,34,34s34-15.252,34-34	S68.727,16.021,49.979,16.021z"/><path fill="#1f212b" d="M65.479,24.248c-0.087,0-0.175-0.022-0.255-0.069c-0.636-0.377-1.298-0.735-1.967-1.066	c-0.247-0.122-0.349-0.422-0.227-0.67s0.425-0.348,0.67-0.227c0.691,0.342,1.376,0.713,2.033,1.102	c0.237,0.142,0.316,0.448,0.176,0.686C65.815,24.16,65.648,24.248,65.479,24.248z"/><path fill="#1f212b" d="M68.479,26.27c-0.106,0-0.214-0.033-0.305-0.104c-0.321-0.246-0.648-0.485-0.981-0.718	c-0.227-0.158-0.282-0.47-0.124-0.696c0.159-0.229,0.473-0.28,0.696-0.124c0.345,0.24,0.686,0.489,1.019,0.745	c0.219,0.168,0.26,0.481,0.092,0.701C68.776,26.202,68.628,26.27,68.479,26.27z"/><path fill="#1f212b" d="M49.979,81.021c-17.094,0-31-13.906-31-31s13.906-31,31-31c3.666,0,7.257,0.635,10.672,1.887	c0.26,0.096,0.393,0.383,0.298,0.642c-0.095,0.261-0.384,0.393-0.642,0.298c-3.305-1.212-6.779-1.826-10.328-1.826	c-16.542,0-30,13.458-30,30s13.458,30,30,30s30-13.458,30-30c0-8.439-3.585-16.536-9.836-22.213	c-0.205-0.186-0.22-0.502-0.034-0.706c0.187-0.204,0.503-0.219,0.706-0.034c6.46,5.866,10.164,14.231,10.164,22.953	C80.979,67.114,67.072,81.021,49.979,81.021z"/><path fill="#fff" d="M62.165,37.293L49.979,49.479L38.295,37.307C38.107,37.111,37.846,37,37.574,37H33	c-0.552,0-1,0.448-1,1v24c0,0.552,0.448,1,1,1h5c0.552,0,1-0.448,1-1V48.431c0-0.196,0.237-0.294,0.376-0.156l9.189,9.189	c0.781,0.781,2.047,0.781,2.828,0l9.189-9.189c0.139-0.139,0.376-0.04,0.376,0.156V62c0,0.552,0.448,1,1,1h5c0.552,0,1-0.448,1-1V38	c0-0.552-0.448-1-1-1h-4.086C62.607,37,62.353,37.105,62.165,37.293z"/><path fill="#1f212b" d="M66.958,37c0.552,0,1,0.448,1,1v24c0,0.552-0.448,1-1,1h-5c-0.552,0-1-0.448-1-1V48.431	c0-0.133-0.109-0.22-0.222-0.22c-0.054,0-0.109,0.02-0.154,0.065l-9.189,9.189c-0.391,0.391-0.902,0.586-1.414,0.586	s-1.024-0.195-1.414-0.586l-9.189-9.189c-0.045-0.045-0.1-0.065-0.154-0.065c-0.113,0-0.222,0.088-0.222,0.22V62	c0,0.552-0.448,1-1,1h-5c-0.552,0-1-0.448-1-1V38c0-0.552,0.448-1,1-1h4.574c0.272,0,0.533,0.111,0.721,0.307l11.684,12.171	l12.186-12.186C62.353,37.105,62.607,37,62.872,37H66.958 M66.958,36h-4.086c-0.534,0-1.036,0.208-1.414,0.586L49.994,48.05	L39.017,36.615C38.642,36.224,38.116,36,37.574,36H33c-1.103,0-2,0.897-2,2v24c0,1.103,0.897,2,2,2h5c1.103,0,2-0.897,2-2V50.314	l7.858,7.858c0.567,0.567,1.32,0.879,2.121,0.879s1.555-0.312,2.121-0.879l7.858-7.858V62c0,1.103,0.897,2,2,2h5	c1.103,0,2-0.897,2-2V38C68.958,36.897,68.061,36,66.958,36L66.958,36z"/></svg>