<?xml version="1.0" encoding="UTF-8"?>
<svg xmlns="http://www.w3.org/2000/svg" version="1.1" viewBox="0 0 800 800">
  <defs>
    <style>
      .cls-1 {
        fill: #316dfd;
      }

      .cls-2 {
        fill: #fff;
      }
    </style>
  </defs>
  <!-- Generator: Adobe Illustrator 28.6.0, SVG Export Plug-In . SVG Version: 1.2.0 Build 709)  -->
  <g>
    <g id="_Слой_1" data-name="Слой_1">
      <rect class="cls-1" x="36.9" y="36.9" width="726.2" height="726.2" rx="79.6" ry="79.6"/>
      <path class="cls-2" d="M625.9,306.8c0-23.1-12-42.3-21.7-62.1-3-6.1-9.1-8.8-15.6-9.7-54.5-6.9-109-13.6-163.5-20.4-10-1.2-14.4,1.5-9.5,12.2,3.7,8.2,7.2,16.5,9.7,25.1,4,13.3,11.8,19.3,26,20.9,53.3,6,106.4,13.2,159.5,19.9-138.5,1.6-276.9.8-417.5,3.2,3.3-1.8,4.5-3,5.8-3.2,44.5-5.9,88.8-14.1,133.5-16.8,31-1.9,48.3-13.2,55.6-43.5,4.4-18.5,5.3-19.6-13.1-17.4-51.4,6.2-102.7,12.8-154.1,19.3-7.6,1-15.4,2.9-19.1,9.8-10.8,20.5-23.1,40.7-23.2,64.8-.3,75.6-.3,151.1,0,226.7,0,35.3,19.7,54.6,55.3,54.7,112.6,0,225.1,0,337.7,0,34.9,0,54.1-18.8,54.2-53.6.2-76.6.2-153.3,0-229.9ZM321.8,451c-10.1-.4-17.2-5.8-17.7-16.5-.6-15.2-.9-30.4,0-45.6.6-11,8.5-17.3,19-17.1,10.4.3,17.8,6.8,19.2,17.5,1,7.7.2,15.7.2,23.6-.1,0-.2,0-.4,0,0,7.3,1,14.8-.2,22-1.8,10.7-9.4,16.4-20.2,16ZM451.9,529.4c-16.4,6.2-33.4,9.2-50.9,9.2-16.5-.2-32.5-3.1-47.8-8.8-7.8-2.9-15.3-7.4-12-17.2,3.1-9.2,10.8-10.2,19.5-6.9,27.7,10.6,55.6,10,83.4.2,8.4-3,16.2-3.3,19.6,6.4,3.5,10.1-4,14.2-11.7,17.1ZM501.2,434.3c-1.3,11-8.7,16.7-19.4,16.7-10.2,0-17.7-5.7-18.4-15.8-1.1-15.7-1.4-31.5,0-47.1.9-10.6,9.4-17,20-16,10.1.9,17.7,6.8,18.2,18.3.3,6.8,0,13.6,0,20.5,0,0-.2,0-.2,0,0,7.9.7,15.8-.2,23.6Z"/>
    </g>
  </g>
</svg>