<?xml version="1.0" encoding="UTF-8"?>
<svg xmlns="http://www.w3.org/2000/svg" version="1.1" viewBox="0 0 800 800">
  <defs>
    <style>
      .cls-1 {
        fill: #0db2db;
      }

      .cls-2 {
        fill: #2286e8;
      }
    </style>
  </defs>
  <!-- Generator: Adobe Illustrator 28.6.0, SVG Export Plug-In . SVG Version: 1.2.0 Build 709)  -->
  <g>
    <g id="_Слой_1" data-name="Слой_1">
      <path class="cls-1" d="M398.7,732.6c-42.8-25-85.6-49.8-128.3-74.9-49.9-29.3-99.5-59.1-149.5-88.2-8.1-4.7-11.5-9.6-11.4-19.2.4-100.6.3-201.3,0-301.9,0-8.6,1.8-14.2,9.9-18.9,89.7-52.6,179.1-105.7,268.7-158.6,3.3-1.9,6.2-5,10.7-3.8,0,22.1,0,44.2,0,66.3-74.2,43.8-148.4,87.6-222.5,131.4-3.6,2.2-7.6,3.6-7.6,9.3.2,35.5.1,71.1.1,108.6,77.8-48.2,153.9-95.3,229.9-142.5.2,22.7.3,45.4.5,68.1-2.1,1.5-4.2,3.1-6.4,4.4-71.3,44.4-142.5,88.9-214,133-7.6,4.7-10.7,9.6-10.3,18.6.7,17.8.8,35.7,0,53.6-.4,8.7,2.8,13,10.1,17.3,73.5,43.2,146.8,86.8,220.1,130.3,0,22.4,0,44.8,0,67.2Z"/>
      <path class="cls-2" d="M398.7,133.4c0-22.1,0-44.2,0-66.3,5-1.4,8.2,2.2,11.8,4.3,89.1,52.6,178.2,105.4,267.5,157.8,7.8,4.6,10.5,9.6,10.4,18.6-.3,101-.3,202.1,0,303.1,0,7.5-1,12.7-8.3,17-91.5,53.7-182.8,107.8-274.2,161.7-2.2,1.3-4.7,2-7.1,3,0-22.4,0-44.8,0-67.2,73-43.1,145.9-86.4,219-129.2,8-4.7,11.5-9.6,11.4-19.3-.4-78.8-.4-157.6,0-236.3,0-8.4-2.2-13.4-9.7-17.5-21.6-12.1-43.1-24.6-64-37.8-8.1-5.1-13.9-5.2-22.1,0-44.5,28.1-89.4,55.5-134.2,83.1-.2-22.7-.3-45.4-.5-68.1,28.8-18.1,57.7-36.2,88.3-55.5-30.7-17.8-59.5-34.6-88.3-51.4Z"/>
    </g>
  </g>
</svg>